<?xml version="1.0" standalone="no"?>
<!DOCTYPE svg PUBLIC "-//W3C//DTD SVG 20010904//EN"
 "http://www.w3.org/TR/2001/REC-SVG-20010904/DTD/svg10.dtd">
<svg version="1.0" xmlns="http://www.w3.org/2000/svg"
 width="200.000000pt" height="200.000000pt" viewBox="0 0 200.000000 200.000000"
 preserveAspectRatio="xMidYMid meet">
<metadata>
Created by potrace 1.13, written by Peter Selinger 2001-2015
</metadata>
<g transform="translate(0.000000,200.000000) scale(0.100000,-0.100000)"
fill="#000000" stroke="none">
<path d="M830 1855 c-138 -28 -242 -81 -340 -172 -196 -181 -221 -465 -63
-701 43 -65 44 -67 38 -127 l-7 -60 -71 -22 -72 -22 -19 25 c-22 29 -66 54
-97 54 -33 0 -85 -39 -103 -77 -33 -70 -10 -197 57 -318 39 -69 97 -114 157
-122 34 -5 43 -1 70 26 29 29 37 31 100 31 84 0 97 -13 78 -83 -10 -39 -9 -49
8 -83 27 -50 62 -75 115 -81 108 -11 185 113 128 206 -11 18 -19 35 -17 36 2
2 100 5 219 7 l217 3 -14 -27 c-21 -40 -18 -105 7 -139 81 -114 263 -51 246
85 -3 22 -7 52 -9 65 -3 23 -1 24 72 27 68 2 77 0 97 -22 28 -30 92 -33 137
-5 39 25 90 108 123 202 32 92 31 222 -2 259 -52 59 -111 57 -175 -5 l-35 -34
-60 18 -60 19 -9 65 c-8 64 -7 67 28 124 62 101 79 163 80 293 0 94 -4 126
-21 172 -90 243 -344 399 -643 397 -52 -1 -124 -7 -160 -14z m-55 -35 c-3 -5
-1 -10 4 -10 6 0 3 -8 -6 -18 -10 -11 -22 -17 -27 -14 -5 3 -6 0 -2 -6 3 -6 2
-13 -4 -17 -5 -3 -10 0 -10 7 -1 21 -40 -35 -40 -56 0 -20 0 -20 16 0 14 18
15 18 8 -6 -8 -33 -19 -44 -38 -37 -10 4 -13 13 -10 24 3 10 -2 7 -10 -7 -20
-32 -20 -41 -1 -34 11 5 13 2 9 -10 -3 -9 -1 -16 5 -16 6 0 11 7 11 16 0 8 5
12 10 9 18 -11 -10 -36 -33 -29 -12 4 -17 2 -13 -4 6 -11 -40 -23 -70 -18 -10
2 -13 1 -6 -1 7 -3 10 -8 7 -13 -3 -5 -12 -7 -20 -3 -11 4 -13 1 -8 -13 4 -11
3 -15 -4 -11 -6 4 -17 -1 -24 -10 -12 -14 -12 -16 1 -9 8 4 7 1 -3 -8 -18 -14
-52 -12 -42 3 2 4 -2 8 -9 8 -8 0 -11 -9 -8 -25 3 -17 7 -20 13 -10 5 8 9 9 9
2 0 -7 -8 -20 -17 -31 -10 -10 -14 -13 -10 -6 5 7 4 20 -3 30 -10 15 -11 15
-6 1 2 -9 -2 -22 -10 -29 -11 -9 -11 -15 -3 -25 9 -11 8 -15 -4 -20 -9 -3 -13
-12 -10 -21 4 -11 2 -14 -5 -9 -8 5 -10 2 -6 -8 3 -9 1 -16 -5 -16 -6 0 -11
-12 -12 -27 0 -25 -1 -26 -10 -8 -7 15 -8 11 -4 -17 3 -20 1 -39 -4 -42 -5 -3
-9 0 -8 7 0 6 -1 28 -3 47 l-3 35 -7 -40 c-6 -31 -7 -27 -4 20 2 33 9 62 14
63 14 5 13 29 -1 34 -8 3 -6 10 5 20 9 9 16 21 16 27 0 6 5 11 11 11 5 0 7 -4
4 -10 -10 -16 1 -11 16 7 10 11 10 14 2 9 -17 -9 -17 16 -1 32 9 9 9 12 -1 12
-7 0 -9 5 -5 11 4 8 9 7 15 -2 4 -8 3 -19 -3 -26 -8 -10 -6 -13 5 -13 15 0 18
35 4 57 -4 6 0 19 8 29 15 18 15 18 10 -7 -5 -18 -1 -30 12 -39 15 -12 16 -12
6 0 -15 17 -17 40 -3 40 5 0 9 -3 8 -7 0 -5 6 -23 14 -42 14 -30 16 -31 21
-12 3 12 2 19 -3 16 -13 -8 -19 22 -7 35 9 10 9 11 0 6 -7 -4 -13 -3 -13 3 0
5 6 12 13 15 6 3 2 3 -10 0 -16 -4 -21 -1 -19 13 2 11 10 17 21 15 11 -2 14 1
10 8 -8 13 43 72 55 65 4 -3 15 4 25 15 10 11 24 20 31 20 7 0 19 6 26 13 19
18 67 41 73 35 3 -3 -8 -11 -25 -18 -16 -7 -30 -20 -30 -29 1 -14 2 -14 11 2
5 9 14 17 19 17 5 0 7 -8 4 -17 -5 -15 -4 -15 4 -3 6 8 9 17 6 21 -2 4 6 9 18
11 12 2 23 10 25 18 4 13 3 13 -7 0 -9 -12 -11 -12 -8 -1 2 8 12 15 22 17 10
1 20 5 24 8 9 10 14 7 7 -4z m519 -32 c-3 -5 0 -9 7 -7 24 3 39 -1 38 -8 -3
-19 2 -33 11 -33 5 0 7 7 3 16 -5 14 -3 15 12 7 24 -14 30 -47 7 -38 -12 4
-14 3 -6 -5 14 -14 46 -2 37 14 -9 13 89 -67 107 -89 19 -23 3 -18 -21 8 l-21
22 21 -42 c23 -46 36 -54 45 -25 4 14 5 14 4 -3 -1 -34 2 -41 11 -27 6 10 18
-6 40 -52 17 -36 30 -69 30 -73 -1 -4 3 -21 10 -38 14 -33 10 -177 -8 -270 -1
-5 -6 -2 -12 8 -12 20 -3 77 12 77 5 0 9 7 9 16 0 14 -2 15 -17 3 -15 -12 -16
-12 -10 4 4 10 7 31 8 45 0 25 1 25 10 7 l9 -20 -3 20 c-1 11 -12 24 -25 30
-12 5 -22 13 -22 18 0 4 4 6 9 2 14 -8 33 32 28 58 -3 17 -5 15 -6 -8 -1 -25
-3 -27 -11 -13 -7 11 -7 26 0 43 13 33 13 38 0 30 -5 -3 -10 2 -10 11 0 14 -3
15 -12 6 -9 -9 -10 -15 -2 -20 13 -8 15 -92 3 -92 -5 0 -9 12 -9 26 0 14 -4
23 -9 20 -4 -3 -17 10 -27 29 -10 19 -22 35 -27 35 -4 0 -5 5 -2 10 4 6 11 8
16 5 5 -4 9 -1 9 5 0 6 -12 8 -27 6 -25 -5 -26 -4 -11 8 10 7 15 16 11 19 -3
4 -1 7 5 7 7 0 12 -6 12 -12 0 -8 5 -6 10 4 13 21 2 48 -19 48 -14 -1 -14 -2
2 -11 9 -5 17 -15 17 -20 0 -6 -4 -8 -9 -5 -13 8 -42 -4 -35 -15 8 -13 -9 -10
-30 6 -10 7 -15 19 -11 25 5 8 1 10 -12 6 -14 -4 -20 -2 -20 9 0 10 7 13 24 9
22 -6 23 -5 12 20 -12 25 -39 36 -39 16 0 -5 7 -10 15 -10 8 0 15 -5 15 -11 0
-5 -5 -7 -10 -4 -6 4 -18 1 -26 -6 -14 -12 -28 -7 -30 12 -3 22 -5 23 -12 13
-10 -16 -52 1 -52 21 0 8 6 15 13 15 7 0 13 15 14 38 l1 37 -10 -35 -11 -35
-7 35 c-4 19 -11 43 -15 53 -4 10 -3 17 4 17 6 0 11 -5 11 -11 0 -5 5 -7 11
-3 8 5 7 9 -4 15 -20 11 -49 1 -40 -15 3 -6 -6 0 -20 13 -28 25 -34 41 -18 41
5 0 12 -9 16 -19 4 -13 11 -18 22 -14 14 6 14 7 -3 14 -13 5 -15 8 -4 9 9 1 6
5 -8 10 -12 5 -28 7 -35 4 -8 -3 -14 2 -14 9 0 13 6 13 44 0 24 -8 40 -19 37
-25z m-389 -53 c92 -55 94 -56 89 -88 -11 -69 -15 -77 -44 -92 -16 -8 -33 -22
-38 -32 -13 -22 -86 -22 -128 0 -33 17 -64 70 -64 109 0 59 51 158 81 158 6 0
52 -25 104 -55z m348 -5 c31 -61 34 -94 12 -147 -22 -54 -58 -77 -121 -78 -42
0 -58 5 -79 25 -33 30 -55 78 -55 119 0 27 8 35 98 85 53 30 102 54 107 53 6
-2 22 -27 38 -57z m-533 -144 c0 -44 99 -104 156 -94 11 2 18 -2 16 -10 -5
-27 27 -80 57 -93 l32 -14 -2 -202 -1 -203 -53 -30 c-29 -17 -58 -37 -65 -45
-7 -8 14 1 46 20 67 40 80 42 114 14 14 -11 39 -29 55 -41 30 -22 30 -22 12
-1 -10 12 -36 34 -58 49 l-39 27 0 203 0 204 34 14 c37 15 71 66 63 95 -3 13
5 16 54 16 67 0 105 22 128 73 10 21 22 32 35 32 34 0 118 -54 168 -107 148
-159 153 -363 14 -556 -75 -105 -134 -147 -272 -192 -109 -36 -291 -46 -396
-20 -149 35 -265 110 -335 214 -70 105 -87 160 -88 276 0 94 2 105 33 167 18
37 54 88 80 114 72 72 212 131 212 90z m808 -698 c0 -32 0 -32 -9 -8 -8 20
-12 22 -19 10 -6 -9 -5 -19 0 -24 6 -6 5 -15 -1 -23 -11 -12 -3 -17 22 -15 3
1 6 -13 7 -31 0 -29 -1 -30 -9 -9 -12 31 -16 28 -11 -8 2 -16 8 -27 13 -24 5
3 9 -4 9 -15 0 -11 -4 -22 -10 -26 -9 -5 -10 -19 -10 -95 -1 -27 -3 -32 -11
-20 -8 11 -9 8 -4 -13 4 -19 2 -26 -4 -22 -7 3 -8 0 -5 -10 3 -8 0 -36 -7 -61
-12 -40 -15 -43 -20 -22 l-7 23 -1 -22 c-1 -13 -6 -23 -13 -23 -9 0 -9 -3 0
-12 19 -19 14 -28 -15 -27 l-28 1 25 9 c20 7 18 8 -12 3 -20 -2 -39 0 -42 5
-4 6 -18 6 -36 1 -22 -6 -28 -5 -24 2 5 7 1 9 -9 5 -19 -7 -32 8 -16 19 7 4
26 11 43 15 28 6 29 7 6 8 -15 1 -31 6 -38 13 -9 9 -12 9 -12 0 0 -7 6 -12 13
-13 11 0 -19 -17 -35 -18 -8 -1 -5 20 5 36 4 6 2 15 -4 19 -8 5 -9 3 -4 -6 5
-8 4 -11 -2 -7 -5 3 -9 16 -7 29 1 13 3 33 3 46 1 14 5 21 12 16 7 -4 10 2 8
17 -2 13 0 30 4 37 5 7 4 12 -2 12 -6 0 -11 5 -11 11 0 5 6 7 13 3 7 -5 6 0
-3 11 -8 10 -10 16 -4 12 7 -4 23 4 35 18 13 13 29 25 34 25 6 0 3 -5 -5 -10
-9 -6 -10 -10 -3 -10 6 0 15 5 18 11 4 6 19 7 35 4 15 -3 31 -2 34 3 3 5 -4 8
-16 8 -12 -1 -23 4 -25 11 -3 7 3 9 16 6 16 -4 21 -1 21 14 0 29 28 63 47 56
11 -4 14 -3 9 5 -7 12 39 82 54 82 4 0 7 -15 8 -32z m-1028 -15 c0 5 12 -6 28
-25 15 -18 38 -43 52 -56 18 -17 20 -22 8 -18 -10 3 -18 1 -18 -3 0 -12 30
-22 42 -14 7 4 8 1 3 -7 -6 -10 -4 -12 11 -6 10 4 15 4 11 0 -4 -5 3 -14 15
-21 22 -12 22 -12 3 -14 -17 -1 -16 -2 5 -8 14 -4 28 -4 31 1 3 5 14 5 24 2
18 -7 18 -8 -1 -15 -17 -7 -17 -8 5 -8 19 -1 22 -5 16 -23 -3 -13 -8 -36 -11
-52 -3 -25 -2 -27 12 -16 9 8 11 16 5 19 -6 4 -6 12 -2 20 6 9 10 5 15 -15 4
-15 4 -30 -1 -33 -11 -8 -15 -34 -4 -27 5 3 11 -1 15 -9 5 -13 -9 -20 -35 -17
-4 1 -6 -9 -5 -22 0 -13 4 -22 8 -20 10 6 38 -7 38 -18 0 -5 -9 -7 -19 -3 -24
7 -34 -7 -24 -33 7 -17 10 -18 21 -6 11 12 10 14 -3 14 -8 0 -15 5 -15 10 0
15 16 12 30 -5 26 -32 -12 -70 -43 -42 -6 7 -24 18 -39 26 -31 16 -52 5 -63
-30 -10 -31 -25 -11 -18 23 4 20 3 29 -4 25 -18 -11 -22 -46 -7 -58 18 -15 18
-25 -2 -33 -11 -4 -15 -2 -11 8 3 8 0 17 -8 20 -8 3 -11 13 -8 25 3 12 -6 42
-21 71 -20 39 -25 61 -22 91 3 22 1 37 -3 34 -11 -6 -18 23 -27 108 -6 63 -5
69 15 83 12 9 19 20 16 25 -4 5 -1 9 5 9 6 0 8 5 4 11 -4 8 -12 2 -21 -15 -7
-14 -15 -26 -16 -26 -2 0 -3 20 -3 46 -1 27 2 40 7 32 5 -7 9 -9 9 -5z m1335
-27 c47 -20 65 -60 65 -145 0 -114 -67 -276 -138 -331 -31 -25 -92 -26 -122
-2 l-23 18 25 40 c14 21 33 62 42 89 22 62 34 229 17 248 -15 18 20 64 63 83
38 16 31 16 71 0z m-1579 -47 c19 -11 34 -26 35 -32 0 -7 1 -57 2 -112 2 -98
3 -102 49 -194 51 -102 51 -125 3 -137 -112 -28 -248 156 -249 338 -1 63 3 82
20 105 41 55 87 65 140 32z m1310 -31 c-3 -18 -2 -49 4 -68 9 -34 9 -33 5 10
-6 54 1 65 40 67 27 2 28 1 8 -7 -23 -10 -32 -30 -12 -30 5 0 7 5 4 10 -3 6 2
9 12 9 26 -2 80 -16 66 -18 -7 0 -13 -7 -13 -15 0 -8 -7 -13 -16 -12 -25 2
-28 -21 -5 -29 12 -3 22 -12 22 -18 1 -7 5 6 9 28 l7 40 2 -42 c0 -26 -4 -45
-13 -50 -7 -4 -17 -19 -21 -32 -6 -19 -4 -23 8 -18 12 5 13 -1 5 -36 -5 -23
-14 -48 -21 -55 -10 -12 -13 -11 -18 9 -7 23 -7 23 -8 -3 -1 -16 4 -28 12 -28
6 -1 -5 -9 -27 -19 -26 -12 -34 -21 -25 -25 11 -5 11 -7 1 -12 -6 -3 -10 -10
-6 -15 3 -5 -12 -9 -34 -9 -30 0 -42 5 -51 23 l-11 22 6 -22 c4 -18 1 -23 -13
-23 -10 0 -14 4 -8 8 6 4 10 13 11 20 4 48 4 48 14 30 6 -10 18 -14 30 -11 11
3 17 10 14 15 -3 5 -13 7 -21 3 -13 -4 -15 2 -9 37 10 76 32 159 38 153 3 -4
4 20 1 54 -5 56 -1 91 12 91 3 0 3 -15 1 -32z m-1106 -5 c0 -15 -2 -16 -10 -3
-8 13 -10 13 -10 -2 0 -9 -6 -19 -12 -21 -7 -3 -3 -6 10 -6 17 -1 22 -7 21
-28 l-1 -28 -8 25 c-4 14 -9 18 -9 10 -1 -8 -4 -26 -7 -40 -5 -20 -4 -22 6
-10 9 12 10 8 5 -20 l-5 -35 14 30 c12 26 14 27 15 9 1 -12 3 -37 6 -55 4 -26
3 -30 -4 -14 -7 14 -10 15 -10 5 -1 -8 6 -28 14 -44 8 -15 15 -34 15 -41 0 -6
11 -33 24 -58 l25 -46 -22 1 c-12 1 -28 6 -34 11 -9 6 -13 5 -13 -2 0 -8 -13
-11 -37 -9 -30 2 -41 9 -57 37 -11 19 -15 32 -9 28 6 -4 14 0 17 9 3 8 2 13
-3 9 -29 -18 -56 34 -53 100 2 23 0 26 -8 15 -7 -11 -9 -8 -8 15 1 17 -1 40
-6 53 -5 16 -4 22 7 22 8 0 17 9 20 20 6 22 -8 28 -16 8 -3 -8 -6 -6 -6 5 -1
11 6 17 19 17 11 0 20 4 20 10 0 5 21 16 48 24 61 19 62 19 62 -1z m432 -210
c19 -75 122 -100 179 -44 16 16 29 39 29 50 0 18 6 21 43 22 23 0 52 2 65 5
19 3 22 0 22 -31 0 -29 -6 -39 -32 -55 -44 -27 -90 -39 -169 -47 -116 -10
-237 40 -250 105 l-7 33 56 -3 c53 -3 56 -4 64 -35z m508 -160 c81 -47 76
-183 -8 -222 -33 -16 -88 -14 -122 4 -78 41 -80 177 -2 219 36 20 98 20 132
-1z m-765 -3 c-3 -5 13 -7 42 -4 60 6 102 -17 127 -71 46 -95 -34 -199 -138
-180 -42 8 -73 36 -92 82 -18 43 -6 94 32 135 15 15 24 28 20 28 -4 0 -4 5 -1
10 3 6 8 10 11 10 3 0 3 -4 -1 -10z"/>
</g>
</svg>
